<svg class="svg-icon" style="width: 1em; height: 1em;vertical-align: middle;fill: currentColor;overflow: hidden;" viewBox="0 0 1024 1024" version="1.1" xmlns="http://www.w3.org/2000/svg"><path d="M409.073 900.723l-263.213 0.137c-11.371 0-23.996-1.375-32.172-11.783-4.158-5.273-6.94-22.192-6.94-33.838V101.1c0.276-2.644 2.37-20.25 12.625-30.506 14.565-14.565 25.524-16.92 27.45-17.194h406.894v108.85c-0.153 5.685 0.275 42.717 21.489 66.987 19.563 22.314 50.482 33.976 53.951 35.23l4.432 1.65 144.094 0.153v129.94l45.484 35.076c2.644 2.644 5.273 5.41 7.764 8.055V205.243L598.238 0H145.844c-5.257 0-32.997 1.528-64.19 32.86C56.13 58.383 53.637 94.88 53.485 98.885v755.65c-0.153 7.642 0.55 44.522 18.156 67.126a80.667 80.667 0 0 0 43.406 28.58c13.45 3.73 25.11 3.73 30.796 3.73l359.042-0.138a315.606 315.606 0 0 1-63.518-28.275l-32.325-24.835zM606.965 78.772L758.823 212.87l-115.513-0.138c-7.642-3.316-20.817-10.255-28.168-18.585-5.808-6.648-8.314-22.467-8.314-31.193l0.153-84.182z m351.156 871.882a42.55 42.55 0 0 1 0.153 59.912 42.672 42.672 0 0 1-29.956 12.334 42.443 42.443 0 0 1-29.956-12.35L767.305 879.51a277.596 277.596 0 0 1-165.17 54.226c-153.936 0-279.17-125.234-279.17-279.17 0-153.936 125.234-279.307 279.17-279.307 153.937 0 279.155 125.233 279.155 279.17 0 61.715-20.113 118.845-54.226 165.17l131.057 131.04z m-355.985-85.71c116.078 0 210.516-94.453 210.516-210.516 0-116.08-94.453-210.516-210.516-210.516-116.08 0-210.516 94.452-210.516 210.516 0 116.079 94.437 210.516 210.516 210.516z"  /></svg>